{
	"asset":{
		"generator":"Khronos glTF Blender I/O v4.4.55",
		"version":"2.0"
	},
	"scene":0,
	"scenes":[
		{
			"name":"Scene",
			"nodes":[
				0
			]
		}
	],
	"nodes":[
		{
			"mesh":0,
			"name":"Teapot001",
			"scale":[
				0.3937007784843445,
				0.3937007784843445,
				0.3937007784843445
			],
			"translation":[
				0.05237819626927376,
				0,
				-0.03357159346342087
			]
		}
	],
	"animations":[
		{
			"channels":[
				{
					"sampler":0,
					"target":{
						"node":0,
						"path":"rotation"
					}
				},
				{
					"sampler":1,
					"target":{
						"node":0,
						"path":"scale"
					}
				}
			],
			"name":"left",
			"samplers":[
				{
					"input":5,
					"interpolation":"LINEAR",
					"output":6
				},
				{
					"input":7,
					"interpolation":"STEP",
					"output":8
				}
			]
		},
		{
			"channels":[
				{
					"sampler":0,
					"target":{
						"node":0,
						"path":"rotation"
					}
				},
				{
					"sampler":1,
					"target":{
						"node":0,
						"path":"scale"
					}
				}
			],
			"name":"right",
			"samplers":[
				{
					"input":5,
					"interpolation":"LINEAR",
					"output":9
				},
				{
					"input":7,
					"interpolation":"STEP",
					"output":10
				}
			]
		}
	],
	"materials":[
		{
			"doubleSided":true,
			"name":"01 - Default",
			"normalTexture":{
				"index":0,
				"scale":0.30000001192092896
			},
			"pbrMetallicRoughness":{
				"baseColorTexture":{
					"index":1
				},
				"metallicFactor":0,
				"metallicRoughnessTexture":{
					"index":2,
					"texCoord":1
				}
			}
		}
	],
	"meshes":[
		{
			"name":"Teapot001",
			"primitives":[
				{
					"attributes":{
						"POSITION":0,
						"NORMAL":1,
						"TEXCOORD_0":2,
						"TEXCOORD_1":3
					},
					"indices":4,
					"material":0
				}
			]
		}
	],
	"textures":[
		{
			"sampler":0,
			"source":0
		},
		{
			"sampler":0,
			"source":1
		},
		{
			"sampler":0,
			"source":2
		}
	],
	"images":[
		{
			"mimeType":"image/jpeg",
			"name":"1zflt0j_NRM",
			"uri":"1zflt0j_NRM.jpg"
		},
		{
			"mimeType":"image/jpeg",
			"name":"1zflt0j",
			"uri":"1zflt0j.jpg"
		},
		{
			"mimeType":"image/jpeg",
			"name":"1zflt0j_lig",
			"uri":"1zflt0j_lig.jpg"
		}
	],
	"accessors":[
		{
			"bufferView":0,
			"componentType":5126,
			"count":6768,
			"max":[
				8.711258888244629,
				8.000999450683594,
				5.079999923706055
			],
			"min":[
				-7.619999885559082,
				0,
				-5.079999923706055
			],
			"type":"VEC3"
		},
		{
			"bufferView":1,
			"componentType":5126,
			"count":6768,
			"type":"VEC3"
		},
		{
			"bufferView":2,
			"componentType":5126,
			"count":6768,
			"type":"VEC2"
		},
		{
			"bufferView":3,
			"componentType":5126,
			"count":6768,
			"type":"VEC2"
		},
		{
			"bufferView":4,
			"componentType":5123,
			"count":6768,
			"type":"SCALAR"
		},
		{
			"bufferView":5,
			"componentType":5126,
			"count":17,
			"max":[
				0.6666666666666666
			],
			"min":[
				0
			],
			"type":"SCALAR"
		},
		{
			"bufferView":6,
			"componentType":5126,
			"count":17,
			"type":"VEC4"
		},
		{
			"bufferView":7,
			"componentType":5126,
			"count":2,
			"max":[
				0.6666666666666666
			],
			"min":[
				0
			],
			"type":"SCALAR"
		},
		{
			"bufferView":8,
			"componentType":5126,
			"count":2,
			"type":"VEC3"
		},
		{
			"bufferView":9,
			"componentType":5126,
			"count":17,
			"type":"VEC4"
		},
		{
			"bufferView":10,
			"componentType":5126,
			"count":2,
			"type":"VEC3"
		}
	],
	"bufferViews":[
		{
			"buffer":0,
			"byteLength":81216,
			"byteOffset":0,
			"target":34962
		},
		{
			"buffer":0,
			"byteLength":81216,
			"byteOffset":81216,
			"target":34962
		},
		{
			"buffer":0,
			"byteLength":54144,
			"byteOffset":162432,
			"target":34962
		},
		{
			"buffer":0,
			"byteLength":54144,
			"byteOffset":216576,
			"target":34962
		},
		{
			"buffer":0,
			"byteLength":13536,
			"byteOffset":270720,
			"target":34963
		},
		{
			"buffer":0,
			"byteLength":68,
			"byteOffset":284256
		},
		{
			"buffer":0,
			"byteLength":272,
			"byteOffset":284324
		},
		{
			"buffer":0,
			"byteLength":8,
			"byteOffset":284596
		},
		{
			"buffer":0,
			"byteLength":24,
			"byteOffset":284604
		},
		{
			"buffer":0,
			"byteLength":272,
			"byteOffset":284628
		},
		{
			"buffer":0,
			"byteLength":24,
			"byteOffset":284900
		}
	],
	"samplers":[
		{
			"magFilter":9729,
			"minFilter":9987
		}
	],
	"buffers":[
		{
			"byteLength":284924,
			"uri":"teapot.bin"
		}
	]
}
